HIERARCHY
ROOT SpineBase
{
  OFFSET 0.000000 0.000000 0.000000
  CHANNELS 6 Xposition Yposition Zposition Zrotation Xrotation Yrotation
  JOINT SpineMid
  {
    OFFSET 0.000000 27.399655 0.000000
    CHANNELS 3 Zrotation Xrotation Yrotation
    JOINT SpineShoulder
    {
      OFFSET -0.082235 20.524258 -0.626455
      CHANNELS 3 Zrotation Xrotation Yrotation
      JOINT Neck
      {
        OFFSET -0.003457 6.876082 -0.504741
        CHANNELS 3 Zrotation Xrotation Yrotation
        JOINT Head
        {
          OFFSET 4.439671 13.475018 1.463411
          CHANNELS 3 Zrotation Xrotation Yrotation
          End Site
          {
            OFFSET 0 0 0
          }
        }
      }
      JOINT ShoulderLeft
      {
        OFFSET -11.474551 0.762518 -10.272692
        CHANNELS 3 Zrotation Xrotation Yrotation
        JOINT ElbowLeft
        {
          OFFSET -2.109696 -21.001764 -10.595720
          CHANNELS 3 Zrotation Xrotation Yrotation
          JOINT WristLeft
          {
            OFFSET 9.350483 -14.528544 -10.918466
            CHANNELS 3 Zrotation Xrotation Yrotation
            JOINT HandLeft
            {
              OFFSET 1.625356 -2.487390 -3.333195
              CHANNELS 3 Zrotation Xrotation Yrotation
              JOINT HandTipLeft
              {
                OFFSET 2.518590 -1.162897 -4.051195
                CHANNELS 3 Zrotation Xrotation Yrotation
                End Site
                {
                  OFFSET 0 0 0
                }
              }
              JOINT ThumbLeft
              {
                OFFSET -0.449740 -1.602744 -6.781597
                CHANNELS 3 Zrotation Xrotation Yrotation
                End Site
                {
                  OFFSET 0 0 0
                }
              }
            }
          }
        }
      }
      JOINT ShoulderRight
      {
        OFFSET 13.510407 -5.434181 8.785437
        CHANNELS 3 Zrotation Xrotation Yrotation
        JOINT ElbowRight
        {
          OFFSET 6.215330 -25.018882 -4.074133
          CHANNELS 3 Zrotation Xrotation Yrotation
          JOINT WristRight
          {
            OFFSET 5.723001 -13.235153 -15.170049
            CHANNELS 3 Zrotation Xrotation Yrotation
            JOINT HandRight
            {
              OFFSET 5.376255 -1.443081 -4.979984
              CHANNELS 3 Zrotation Xrotation Yrotation
              JOINT HandTipRight
              {
                OFFSET 4.182170 -5.401918 -4.093860
                CHANNELS 3 Zrotation Xrotation Yrotation
                End Site
                {
                  OFFSET 0 0 0
                }
              }
              JOINT ThumbRight
              {
                OFFSET -2.190001 -1.031173 -3.508280
                CHANNELS 3 Zrotation Xrotation Yrotation
                End Site
                {
                  OFFSET 0 0 0
                }
              }
            }
          }
        }
      }
    }
  }
  JOINT HipLeft
  {
    OFFSET -5.419553 1.852238 -7.192323
    CHANNELS 3 Zrotation Xrotation Yrotation
    JOINT KneeLeft
    {
      OFFSET 8.548554 3.900734 -31.148147
      CHANNELS 3 Zrotation Xrotation Yrotation
      JOINT AnkleLeft
      {
        OFFSET 5.179018 -33.248754 1.711119
        CHANNELS 3 Zrotation Xrotation Yrotation
        JOINT FootLeft
        {
          OFFSET 8.380954 -1.183337 -12.413726
          CHANNELS 3 Zrotation Xrotation Yrotation
          End Site
          {
            OFFSET 0 0 0
          }
        }
      }
    }
  }
  JOINT HipRight
  {
    OFFSET 6.463987 1.068831 1.024217
    CHANNELS 3 Zrotation Xrotation Yrotation
    JOINT KneeRight
    {
      OFFSET 24.201725 1.006186 -14.732460
      CHANNELS 3 Zrotation Xrotation Yrotation
      JOINT AnkleRight
      {
        OFFSET -8.883843 -31.706403 -9.983843
        CHANNELS 3 Zrotation Xrotation Yrotation
        JOINT FootRight
        {
          OFFSET -8.517251 2.739333 -12.004762
          CHANNELS 3 Zrotation Xrotation Yrotation
          End Site
          {
            OFFSET 0 0 0
          }
        }
      }
    }
  }
}
MOTION
Frames: 12
Frame Time: 0.033333
-60.520618 33.606810 358.441486 -0.000000 0.000000 -34.660833 -0.000000 0.000000 34.660833 -0.000000 0.000000 0.000000 -0.000000 0.000000 0.000000 0.000000 0.000000 0.000000 -0.000000 0.000000 0.000000 -0.000000 0.000000 0.000000 -0.000000 0.000000 0.000000 -0.000000 0.000000 0.000000 0.000000 0.000000 0.000000 0.000000 0.000000 0.000000 -0.000000 0.000000 0.000000 -0.000000 0.000000 0.000000 -0.000000 0.000000 0.000000 -0.000000 0.000000 0.000000 0.000000 0.000000 0.000000 0.000000 0.000000 0.000000 -0.000000 0.000000 34.660833 -0.000000 0.000000 0.000000 -0.000000 0.000000 0.000000 0.000000 0.000000 0.000000 -0.000000 0.000000 34.660833 -0.000000 0.000000 0.000000 -0.000000 0.000000 0.000000 0.000000 0.000000 0.000000
-60.520006 33.597905 358.421864 0.143452 0.072013 -34.476514 -0.077491 -0.140568 34.476329 -0.000000 0.000000 0.000000 -0.000000 0.000000 0.000000 0.000000 0.000000 0.000000 -0.000000 0.000000 0.000000 1.165098 0.430149 -0.597552 0.164666 0.177072 -0.776813 -1.754690 -1.491935 1.111911 0.000000 0.000000 0.000000 0.000000 0.000000 0.000000 -0.927146 -1.185446 -0.153683 0.424751 0.237701 0.307326 3.223276 2.610094 -3.000941 0.124659 -1.956234 0.531343 0.000000 0.000000 0.000000 0.000000 0.000000 0.000000 -0.077491 -0.140568 34.476329 -0.000000 0.000000 0.000000 -2.465106 -3.437166 2.700233 0.000000 0.000000 0.000000 -0.077491 -0.140568 34.476329 -0.000000 0.000000 0.000000 -0.000000 0.000000 0.000000 0.000000 0.000000 0.000000
-60.519844 33.595070 358.404004 0.290382 0.167495 -34.278185 -0.145614 -0.301949 34.277377 -0.000000 0.000000 0.000000 -0.000000 0.000000 0.000000 0.000000 0.000000 0.000000 -0.000000 0.000000 0.000000 1.638864 0.584471 -0.852779 0.291408 0.337406 -1.110761 -2.633449 -2.350863 1.695773 0.000000 0.000000 0.000000 0.000000 0.000000 0.000000 -1.564819 -2.075276 -0.290962 0.857047 0.307605 0.292397 5.376939 4.602177 -4.731704 0.356223 -3.395031 0.641300 0.000000 0.000000 0.000000 0.000000 0.000000 0.000000 -0.145614 -0.301949 34.277377 -0.000000 0.000000 0.000000 -4.870787 -7.131931 5.475447 0.000000 0.000000 0.000000 -0.145614 -0.301949 34.277377 -0.000000 0.000000 0.000000 -0.000000 0.000000 0.000000 0.000000 0.000000 0.000000
-60.520130 33.598304 358.387909 0.440779 0.286467 -34.065868 -0.204685 -0.484204 34.063901 -0.000000 0.000000 0.000000 -0.000000 0.000000 0.000000 0.000000 0.000000 0.000000 -0.000000 0.000000 0.000000 1.465742 0.489144 -0.784054 0.378147 0.496764 -1.027745 -2.757121 -2.630537 1.808442 0.000000 0.000000 0.000000 0.000000 0.000000 0.000000 -1.896141 -2.653906 -0.397675 1.277899 0.194674 -0.046706 6.518350 6.164241 -5.236618 0.681825 -4.440765 0.282311 0.000000 0.000000 0.000000 0.000000 0.000000 0.000000 -0.204685 -0.484204 34.063901 -0.000000 0.000000 0.000000 -7.080649 -10.881246 8.217786 0.000000 0.000000 0.000000 -0.204685 -0.484204 34.063901 -0.000000 0.000000 0.000000 -0.000000 0.000000 0.000000 0.000000 0.000000 0.000000
-60.520865 33.607607 358.373576 0.594630 0.428943 -33.839565 -0.011741 0.166797 33.859905 -0.072034 0.086521 0.021003 0.298866 -1.032592 -0.010649 0.000000 0.000000 0.000000 0.081626 0.121408 -0.469134 -0.681437 -0.787050 0.419383 1.087178 0.796859 -0.929314 -2.157258 -2.348986 1.493614 0.000000 0.000000 0.000000 0.000000 0.000000 0.000000 -2.518976 -3.568341 -0.534976 1.675010 -0.116134 -0.708457 6.672760 7.391354 -4.503286 1.103420 -5.173514 -0.603256 0.000000 0.000000 0.000000 0.000000 0.000000 0.000000 -0.255060 -0.687399 33.835809 -0.000000 0.000000 0.000000 -8.962620 -14.415774 10.812901 0.000000 0.000000 0.000000 -0.255060 -0.687399 33.835809 -0.000000 0.000000 0.000000 -0.000000 0.000000 0.000000 0.000000 0.000000 0.000000
-60.522049 33.622980 358.361008 0.751919 0.594929 -33.599261 -0.021412 0.185664 33.623338 -0.089722 0.103768 0.025431 0.559017 -1.213920 -0.064522 0.000000 0.000000 0.000000 0.177401 0.201682 -0.626859 -1.780579 -1.584907 0.878287 0.502985 0.824358 0.377616 -0.787378 -1.487894 0.799995 0.000000 0.000000 0.000000 0.000000 0.000000 0.000000 -2.348935 -3.699552 -0.573320 2.042358 -0.639839 -1.687820 5.821438 8.295829 -2.444066 1.641697 -5.636481 -2.111400 0.000000 0.000000 0.000000 0.000000 0.000000 0.000000 -0.297127 -0.911606 33.592993 -0.000000 0.000000 0.000000 -10.414475 -17.447895 13.155996 0.000000 0.000000 0.000000 -0.297127 -0.911606 33.592993 -0.000000 0.000000 0.000000 0.574972 -0.848908 -0.110195 0.000000 0.000000 0.000000
-60.478807 33.631129 358.354623 0.919549 0.752467 -33.447001 -0.050170 0.194099 33.473789 -0.112541 0.122338 0.028896 1.178484 -1.100966 -0.246253 0.000000 0.000000 0.000000 0.053378 0.360843 -0.673543 -6.188813 -4.058242 2.776907 0.546801 0.921835 3.200746 4.022437 4.792609 5.446062 0.000000 0.000000 0.000000 0.000000 0.000000 0.000000 -2.522683 -3.594306 -0.504263 3.209507 -0.927624 -3.087404 5.200236 10.090231 1.559600 2.244513 -7.961453 -6.137690 0.000000 0.000000 0.000000 0.000000 0.000000 0.000000 -0.352638 -1.134632 33.437470 -0.000000 0.000000 0.000000 -11.729406 -20.452179 15.373701 0.000000 0.000000 0.000000 -0.352638 -1.134632 33.437470 -0.000000 0.000000 0.000000 1.312905 -1.776748 0.226046 0.000000 0.000000 0.000000
-60.480695 33.660866 358.325661 1.039337 0.958471 -33.178177 -0.050189 0.198285 33.206749 -0.117133 0.149067 0.032436 1.845703 -1.057941 -0.417757 0.000000 0.000000 0.000000 0.474744 0.526952 -0.990085 -9.911701 -6.222088 4.240173 1.369907 2.904086 5.728126 9.703514 3.168987 -8.240609 0.000000 0.000000 0.000000 0.000000 0.000000 0.000000 -1.941656 -3.255642 -0.456080 4.925521 -2.357762 -6.278294 2.041893 11.466962 6.282136 1.465111 -10.431537 -8.579171 0.000000 0.000000 0.000000 0.000000 0.000000 0.000000 -0.345543 -1.370916 33.165349 -0.000000 0.000000 0.000000 -11.944795 -23.078148 22.228314 0.000000 0.000000 0.000000 -0.345543 -1.370916 33.165349 -0.000000 0.000000 0.000000 1.469172 -1.912042 0.465198 0.000000 0.000000 0.000000
-60.579910 33.705695 358.272557 1.127317 1.310017 -32.681251 -0.014840 0.178396 32.710650 -0.129211 0.151721 0.034346 2.229323 -1.470055 -0.419793 0.000000 0.000000 0.000000 0.855660 0.606153 -1.269727 -7.972890 -5.286812 3.631321 1.603128 1.652349 2.768157 6.273621 3.247589 -4.644213 0.000000 0.000000 0.000000 0.000000 0.000000 0.000000 -1.080064 -2.807811 -0.392441 4.806446 -4.942189 -8.053741 -6.057910 7.562394 16.786002 8.367867 -6.879604 -16.544378 0.000000 0.000000 0.000000 0.000000 0.000000 0.000000 -0.241732 -1.711242 32.664752 -0.000000 0.000000 0.000000 -12.803568 -26.885198 26.527322 0.000000 0.000000 0.000000 -0.297497 -1.751486 31.762705 0.068577 0.004874 0.900360 1.431569 -1.705387 0.898875 0.000000 0.000000 0.000000
-60.669745 33.773147 358.271593 1.309667 1.645086 -32.147888 -0.033419 0.146330 32.176881 -0.139577 0.154790 0.038100 2.243797 -2.018288 -0.346543 0.000000 0.000000 0.000000 1.174461 0.647608 -1.538501 -10.418386 -6.436537 4.827406 1.682235 0.190318 2.934145 5.675405 1.537096 -5.865628 0.000000 0.000000 0.000000 0.000000 0.000000 0.000000 1.888513 -1.577255 -0.428378 1.936993 -6.692867 -8.127033 -14.143086 -2.306454 26.516617 13.774613 -2.409946 -24.439667 0.000000 0.000000 0.000000 0.000000 0.000000 0.000000 -0.233913 -2.089587 32.124819 -0.000000 0.000000 0.000000 -14.370148 -28.926819 23.345097 0.000000 0.000000 0.000000 -0.377775 -2.276373 30.917243 0.219305 0.086372 1.201930 1.504088 -1.735731 1.099506 0.000000 0.000000 0.000000
-60.716509 33.833581 358.364436 1.578347 1.836401 -31.708080 -0.158760 0.093318 31.732865 -0.171189 0.117511 0.040213 2.196104 -2.419620 -0.268942 0.000000 0.000000 0.000000 1.518551 0.770885 -1.794401 -22.411822 -12.846646 9.235457 3.085676 -2.504741 7.096070 1.579108 -7.953190 -16.363237 0.000000 0.000000 0.000000 0.000000 0.000000 0.000000 6.586265 0.248008 -0.680404 -1.041061 -7.649645 -9.168409 -20.004732 -11.892471 28.997133 14.908175 3.623700 -22.499912 0.000000 0.000000 0.000000 0.000000 0.000000 0.000000 -0.378255 -2.391589 31.674886 -0.000000 0.000000 0.000000 -18.725796 -31.821691 12.154414 0.000000 0.000000 0.000000 -0.807421 -3.144062 30.719348 0.752995 0.427756 0.932003 1.625582 -1.882911 1.161239 0.000000 0.000000 0.000000
-60.756314 33.914187 358.461216 1.872324 2.050924 -31.304714 -0.265891 0.006219 31.323978 -0.190954 0.114707 0.044003 1.991948 -2.846471 -0.182495 0.000000 0.000000 0.000000 1.774713 0.734624 -2.009402 -30.649714 -17.449734 11.787211 5.548580 -4.123150 7.694713 -3.863777 -12.818971 -15.158376 0.000000 0.000000 0.000000 0.000000 0.000000 0.000000 11.651256 1.012300 -1.262990 -2.630400 -4.110213 -10.274108 -29.193315 -28.187023 26.794361 27.101615 13.512326 -22.128934 0.000000 0.000000 0.000000 0.000000 0.000000 0.000000 -0.535230 -2.724727 31.258468 -0.000000 0.000000 0.000000 -23.009652 -27.678006 -12.835360 0.000000 0.000000 0.000000 -1.423607 -4.385095 30.782324 1.612123 0.971728 0.407382 1.605697 -1.893826 1.052702 0.000000 0.000000 0.000000
